# xmcd
#
# Track frame offsets:
#	150
#	9967
#	30085
#	48351
#	68331
#	83835
#	97772
#	122799
#	147487
#	178915
#
# Disc length: 2602 seconds
# Revision: 8
# Processed by: cddbd v1.5.2PL0 Copyright (c) Steve Scherf et al.
# Submitted via: dBpowerAMP V12.0
#
DISCID=700a280a
DTITLE=Fleetwood Mac - Shrine '69
DYEAR=1999
DGENRE=Blues
TTITLE0=Tune up
TTITLE1=If you be my baby
TTITLE2=Something inside of me
TTITLE3=My sweet baby
TTITLE4=Albatross
TTITLE5=Before the beginning
TTITLE6=Rollin' man
TTITLE7=Lemon squeezer
TTITLE8=Need your love so bad
TTITLE9=Great balls of fire
EXTD=
EXTT0=
EXTT1=
EXTT2=
EXTT3=
EXTT4=
EXTT5=
EXTT6=
EXTT7=
EXTT8=
EXTT9=
PLAYORDER=
